<?xml version="1.0" encoding="UTF-8"?>
<svg xmlns="http://www.w3.org/2000/svg" version="1.1" viewBox="0 0 568 176">
    <path fill="#737577" d="m168,68.8c0,10.3-8.35,18.6-18.6,18.6-10.3,0-18.6-8.35-18.6-18.6,0-10.3,8.35-18.6,18.6-18.6,10.3,0,18.6,8.35,18.6,18.6"/>
    <path fill="#858789" d="m195,63.3c0,5.01-4.06,9.07-9.08,9.07-5.01,0-9.07-4.06-9.07-9.07s4.06-9.07,9.07-9.07,9.08,4.06,9.08,9.07"/>
    <path fill="#858789" d="m190,96.1c0,6.4-5.19,11.6-11.6,11.6-6.4,0-11.6-5.19-11.6-11.6,0-6.4,5.19-11.6,11.6-11.6,6.4,0,11.6,5.19,11.6,11.6"/>
    <path fill="#858789" d="m125,149c0,8.07-6.54,14.6-14.6,14.6-8.07,0-14.6-6.54-14.6-14.6,0-8.07,6.54-14.6,14.6-14.6,8.07,0,14.6,6.54,14.6,14.6"/>
    <path fill="#858789" d="m100,48.6c0-4.18,3.38-7.56,7.56-7.56s7.56,3.38,7.56,7.56-3.38,7.56-7.56,7.56-7.56-3.38-7.56-7.56"/>
    <path fill="#858789" d="m123,114c0,2.78-2.26,5.04-5.04,5.04s-5.04-2.26-5.04-5.04c0-2.79,2.26-5.04,5.04-5.04s5.04,2.26,5.04,5.04"/>
    <path fill="#858789" d="m235,162c0,3.9-3.16,7.06-7.06,7.06s-7.06-3.16-7.06-7.06,3.16-7.06,7.06-7.06,7.06,3.16,7.06,7.06"/>
    <path fill="#4d4c4e" d="m25.2,87.7,52.2,0c-1.9-7.2-11.3-17.8-27.3-19.1-15.7,0.8-23.4,11.7-24.9,19.1m-20.1,8.8c0.185-24.4,19.7-44.9,45-44.9,24,0,43,17.4,44.4,41.7v0.898c0,0.361,0,1.26-0.184,1.62-0.552,4.31-4.42,7.19-9.59,7.19h-58.6c0.922,4.13,2.95,8.81,6.27,11.9,3.87,4.32,11.2,7.55,17.7,8.09,6.64,0.54,14.6-1.08,19.2-4.49,3.87-3.96,11.4-3.42,13.8-0.539,2.4,2.52,4.24,7.91,0,11.7-9.04,8.09-19.9,11.9-33,11.9-25.3-0.181-44.8-20.5-45-44.9"/>
    <path fill="#4d4c4e" d="m259,61.6,0,70.1c0,5.39-4.24,9.71-9.96,9.71-5.53,0-9.96-4.31-9.96-9.71v-70.1c0-5.75,4.42-9.88,9.96-9.88,5.72,0,9.96,4.13,9.96,9.88"/>
    <path fill="#4d4c4e" d="m266,116c3.32-4.31,9.77-4.85,13.8-1.44,4.79,3.95,13.1,8.08,20.3,7.91,4.98,0,9.59-1.62,12.5-3.42,2.58-2.16,3.32-3.96,3.32-5.39,0-0.899-0.185-1.26-0.554-1.8-0.185-0.539-0.922-1.26-2.4-2.16-2.58-1.8-8.11-3.78-14.8-5.03h-0.182c-5.72-1.08-11.2-2.52-16-4.67-4.98-2.34-9.4-5.57-12.7-10.4-2.03-3.24-3.13-7.19-3.13-11.3,0-8.27,4.79-15.3,10.9-19.8,6.45-4.31,14.2-6.65,22.7-6.65,12.7,0,21.8,5.93,27.7,9.89,4.42,2.87,5.72,8.81,2.95,13.3-2.95,4.31-9.03,5.57-13.6,2.52-5.9-3.78-11.1-6.65-17-6.65-4.61,0-8.66,1.44-11.1,3.24-2.4,1.62-2.95,3.23-2.95,4.13,0,0.719,0,0.899,0.369,1.44,0.184,0.36,0.738,1.08,2.03,1.8,2.4,1.62,7.19,3.24,13.5,4.31l0.182,0.18h0.186c6.08,1.08,11.8,2.7,17.1,5.21,4.98,2.16,9.96,5.57,13.1,10.6,2.21,3.59,3.5,7.73,3.5,11.9,0,8.81-4.98,16.2-11.6,20.8-6.64,4.49-14.9,7.19-24,7.19-14.4-0.181-25.4-6.65-32.8-12.4-4.06-3.24-4.61-9.35-1.29-13.3"/>
    <path fill="#4d4c4e" d="m385,61.4c0,5.39-4.79,9.88-10.3,9.88h-4.61v50.1c5.72,0,10.1,4.5,10.1,10.1,0,5.57-4.43,9.88-10.1,9.88-11.2,0-20.5-8.99-20.5-20v-50.1h-5.35c-5.72,0-10.1-4.49-10.1-9.88,0-5.57,4.42-9.88,10.1-9.88h5.35v-26.1c0-5.57,4.61-9.88,10.3-9.88,5.72,0,10.1,4.31,10.1,9.88v26.1h4.61c5.53,0,10.3,4.31,10.3,9.88"/>
    <path fill="#4d4c4e" d="m175,119c0,6.12-4.96,11.1-11.1,11.1-6.12,0-11.1-4.96-11.1-11.1,0-6.12,4.96-11.1,11.1-11.1,6.12,0,11.1,4.97,11.1,11.1"/>
    <path fill="#4d4c4e" d="m205,141c0,7.24-5.87,13.1-13.1,13.1-7.24,0-13.1-5.87-13.1-13.1,0-7.24,5.87-13.1,13.1-13.1,7.24,0,13.1,5.87,13.1,13.1"/>
    <path fill="#4d4c4e" d="m120,28c0,4.45-3.61,8.06-8.07,8.06-4.45,0-8.06-3.61-8.06-8.06s3.61-8.06,8.06-8.06c4.46,0,8.07,3.61,8.07,8.06"/>
    <path fill="#4d4c4e" d="m96.8,163c0,3.9-3.16,7.06-7.06,7.06s-7.06-3.16-7.06-7.06,3.16-7.06,7.06-7.06,7.06,3.16,7.06,7.06"/>
    <path fill="#4d4c4e" d="m187,42.6c0,4.18-3.39,7.56-7.56,7.56-4.18,0-7.56-3.38-7.56-7.56s3.38-7.56,7.56-7.56,7.56,3.38,7.56,7.56"/>
    <path fill="#08C" d="m139,42.6c0,5.84-4.74,10.6-10.6,10.6-5.84,0-10.6-4.74-10.6-10.6,0-5.85,4.74-10.6,10.6-10.6,5.85,0,10.6,4.74,10.6,10.6"/>
    <path fill="#08C" d="m126,65.3c0,3.9-3.16,7.06-7.06,7.06s-7.06-3.16-7.06-7.06,3.16-7.06,7.06-7.06,7.06,3.16,7.06,7.06"/>
    <path fill="#08C" d="m422,71.2c-6.64,0-12.7,2.7-17.3,7.37-4.61,4.49-7.38,11-7.38,18.2,0,6.83,2.76,13.3,7.38,17.8,4.61,4.67,10.7,7.37,17.3,7.37,6.82,0,12.7-2.7,17.3-7.37,4.61-4.49,7.38-11,7.38-17.8,0-7.19-2.77-13.7-7.38-18.2-4.61-4.67-10.5-7.37-17.3-7.37m44.8,60.6c0,5.21-4.42,9.71-9.96,9.71-4.98,0-8.85-3.42-9.77-7.73-7.01,4.67-15.9,7.73-25.1,7.73-24.9,0-44.8-20.5-44.8-44.8,0-24.6,19.9-45.1,44.8-45.1,9.04,0,17.9,2.88,24.7,7.55v-33.8c0-5.21,4.42-9.71,10.1-9.71,5.53,0,9.96,4.49,9.96,9.71v71.2,0.18,35z"/>
    <path fill="#08C" d="m493,96.7c0,6.83,2.77,13.3,7.38,17.8,4.61,4.67,10.5,7.37,17.3,7.37,6.64,0,12.7-2.7,17.3-7.37,4.61-4.49,7.38-11,7.38-17.8,0-7.19-2.76-13.7-7.38-18.2-4.61-4.67-10.7-7.37-17.3-7.37-6.82,0-12.7,2.7-17.3,7.37-4.61,4.49-7.38,11-7.38,18.2m-20.1,0,0-0.181,0-71.2c0-5.21,4.43-9.7,9.96-9.7,5.72,0,10.1,4.49,10.1,9.7v33.8c6.82-4.67,15.7-7.55,24.7-7.55,24.9,0,44.8,20.5,44.8,45.1,0,24.3-19.9,44.8-44.8,44.8-9.22,0-18.1-3.06-25.1-7.73-0.921,4.31-4.79,7.73-9.77,7.73-5.53,0-9.96-4.5-9.96-9.71v-35z"/>
    <path fill="#08C" d="m235,23.5c0,4.18-3.38,7.56-7.56,7.56s-7.56-3.38-7.56-7.56,3.38-7.56,7.56-7.56,7.56,3.38,7.56,7.56"/>
    <path fill="#08C" d="m219,41.1c0,7.8-6.32,14.1-14.1,14.1-7.8,0-14.1-6.32-14.1-14.1,0-7.79,6.32-14.1,14.1-14.1,7.79,0,14.1,6.32,14.1,14.1"/>
    <path fill="#08C" d="m148,102c0,5.57-4.51,10.1-10.1,10.1-5.57,0-10.1-4.51-10.1-10.1,0-5.57,4.51-10.1,10.1-10.1,5.57,0,10.1,4.51,10.1,10.1"/>
    <path fill="#08C" d="m139,128c0,5.01-4.06,9.07-9.07,9.07s-9.07-4.06-9.07-9.07,4.06-9.07,9.07-9.07,9.07,4.06,9.07,9.07"/>
    <path fill="#08C" d="m213,116c0,5.01-4.06,9.07-9.07,9.07s-9.07-4.06-9.07-9.07,4.06-9.07,9.07-9.07,9.07,4.06,9.07,9.07"/>
    <path fill="#08C" d="m227,141c0,4.45-3.61,8.06-8.06,8.06s-8.06-3.61-8.06-8.06,3.61-8.06,8.06-8.06,8.06,3.61,8.06,8.06"/>
    <path fill="#08C" d="m98.6,24.5c0,2.78-2.26,5.04-5.04,5.04s-5.04-2.26-5.04-5.04,2.26-5.04,5.04-5.04,5.04,2.26,5.04,5.04"/>
    <path fill="#08C" d="m96.8,10.9c0,2.78-2.26,5.04-5.04,5.04s-5.04-2.26-5.04-5.04,2.26-5.04,5.04-5.04,5.04,2.26,5.04,5.04"/>
    <path fill="#08C" d="m113,124c0,3.34-2.71,6.05-6.05,6.05s-6.05-2.71-6.05-6.05,2.71-6.05,6.05-6.05,6.05,2.71,6.05,6.05"/>
</svg>