<?xml-stylesheet type="text/css" href="button.css" ?><svg xmlns="http://www.w3.org/2000/svg" width="300" height="140"><rect width="300" height="139.557" x="-2.726" y="913.248" ry="6" transform="matrix(1 -.00297 .00299 1 0 -912.362)" fill="#fff" opacity=".8"/><path d="M94.004 77.59c0 4.924-3.992 8.892-8.892 8.892-4.924 0-8.892-3.992-8.892-8.892 0-4.924 3.992-8.892 8.892-8.892 4.924 0 8.892 3.992 8.892 8.892" fill="#737577"/><path d="M106.912 74.96a4.337 4.337 0 0 1-4.34 4.337 4.336 4.336 0 1 1 0-8.672 4.34 4.34 0 0 1 4.34 4.336M104.522 90.642a5.547 5.547 0 0 1-11.092 0 5.547 5.547 0 0 1 11.092 0M73.447 115.932a6.979 6.979 0 0 1-6.98 6.98 6.979 6.979 0 0 1-6.98-6.98 6.979 6.979 0 0 1 6.98-6.98 6.979 6.979 0 0 1 6.98 6.98M61.495 67.933a3.611 3.611 0 0 1 3.614-3.614 3.611 3.611 0 0 1 3.615 3.614 3.611 3.611 0 0 1-3.615 3.614 3.611 3.611 0 0 1-3.614-3.614M72.49 99.2c0 1.328-1.08 2.409-2.409 2.409a2.409 2.409 0 1 1 2.41-2.41M126.035 122.147a3.375 3.375 0 1 1-6.75 0 3.375 3.375 0 0 1 6.75 0" fill="#858789"/><path d="M25.735 86.626h24.956c-.909-3.442-5.403-8.51-13.052-9.131-7.506.382-11.187 5.593-11.904 9.13m-9.61 4.208c.09-11.665 9.419-21.466 21.514-21.466 11.474 0 20.557 8.319 21.227 19.936v.43c0 .172 0 .602-.088.774-.264 2.06-2.113 3.437-4.585 3.437H26.178c.44 1.975 1.41 4.212 2.997 5.69 1.85 2.065 5.355 3.609 8.462 3.867 3.175.258 6.98-.516 9.18-2.147 1.85-1.893 5.45-1.635 6.597-.257 1.147 1.204 2.027 3.781 0 5.593-4.322 3.868-9.514 5.69-15.777 5.69-12.095-.087-21.417-9.801-21.513-21.466M137.509 74.148v33.513c0 2.577-2.027 4.642-4.762 4.642-2.643 0-4.761-2.06-4.761-4.642V74.148c0-2.749 2.113-4.723 4.761-4.723 2.735 0 4.762 1.974 4.762 4.723M140.855 100.155c1.588-2.06 4.671-2.318 6.598-.688 2.29 1.888 6.263 3.863 9.705 3.781 2.38 0 4.585-.774 5.976-1.635 1.233-1.032 1.587-1.893 1.587-2.576 0-.43-.089-.603-.265-.86-.088-.259-.44-.603-1.147-1.034-1.234-.86-3.878-1.807-7.076-2.404h-.087c-2.734-.517-5.354-1.205-7.649-2.233-2.38-1.119-4.494-2.663-6.072-4.972-.97-1.549-1.496-3.437-1.496-5.402 0-3.954 2.29-7.315 5.211-9.466 3.084-2.06 6.789-3.18 10.852-3.18 6.072 0 10.422 2.836 13.243 4.729 2.113 1.372 2.735 4.212 1.41 6.358-1.41 2.06-4.317 2.663-6.501 1.205-2.821-1.807-5.307-3.18-8.128-3.18-2.204 0-4.14.69-5.306 1.55-1.148.774-1.41 1.544-1.41 1.974 0 .344 0 .43.176.689.088.172.353.516.97.86 1.148.775 3.438 1.55 6.454 2.06l.087.087h.09c2.906.516 5.64 1.29 8.174 2.49 2.381 1.033 4.762 2.663 6.263 5.068 1.057 1.716 1.673 3.696 1.673 5.69 0 4.211-2.38 7.744-5.545 9.943-3.175 2.147-7.124 3.438-11.474 3.438-6.884-.087-12.143-3.18-15.681-5.929-1.941-1.548-2.204-4.47-.617-6.358M197.746 74.052c0 2.577-2.29 4.724-4.924 4.724h-2.204v23.951c2.735 0 4.829 2.152 4.829 4.829 0 2.663-2.118 4.723-4.829 4.723-5.354 0-9.8-4.298-9.8-9.561V78.766h-2.558c-2.735 0-4.829-2.146-4.829-4.723 0-2.663 2.114-4.723 4.829-4.723h2.558V56.842c0-2.663 2.204-4.724 4.924-4.724 2.734 0 4.828 2.06 4.828 4.724V69.32h2.204c2.644 0 4.924 2.06 4.924 4.723M97.35 101.59a5.307 5.307 0 1 1-10.613 0 5.307 5.307 0 0 1 10.614 0M111.693 112.107a6.263 6.263 0 1 1-12.526 0 6.263 6.263 0 0 1 12.526 0M71.057 58.085a3.855 3.855 0 0 1-7.712 0 3.855 3.855 0 1 1 7.711 0M59.965 122.625a3.375 3.375 0 1 1-6.75 0 3.375 3.375 0 0 1 6.75 0M103.088 65.065a3.614 3.614 0 1 1-7.23 0 3.614 3.614 0 0 1 7.23 0" fill="#4d4c4e"/><path d="M80.14 65.065a5.07 5.07 0 0 1-5.068 5.067 5.067 5.067 0 1 1 5.068-5.068M73.925 75.917a3.375 3.375 0 1 1-6.75.001 3.375 3.375 0 0 1 6.75-.001M215.435 78.738c-3.174 0-6.072 1.29-8.27 3.523-2.205 2.147-3.529 5.259-3.529 8.7 0 3.266 1.32 6.36 3.528 8.51 2.204 2.233 5.116 3.524 8.271 3.524 3.26 0 6.072-1.29 8.27-3.523 2.205-2.147 3.529-5.26 3.529-8.51 0-3.437-1.324-6.55-3.528-8.701-2.204-2.233-5.02-3.523-8.271-3.523m21.418 28.97c0 2.492-2.113 4.643-4.762 4.643-2.38 0-4.23-1.635-4.67-3.696-3.352 2.233-7.602 3.696-12 3.696-11.904 0-21.418-9.8-21.418-21.418 0-11.76 9.514-21.56 21.418-21.56 4.321 0 8.557 1.376 11.808 3.609v-16.16c0-2.49 2.113-4.641 4.829-4.641 2.643 0 4.761 2.146 4.761 4.642v50.857zM249.378 90.928c0 3.266 1.325 6.359 3.529 8.51 2.203 2.233 5.02 3.524 8.27 3.524 3.175 0 6.072-1.291 8.27-3.524 2.205-2.146 3.53-5.259 3.53-8.51 0-3.437-1.32-6.55-3.53-8.7-2.203-2.233-5.115-3.524-8.27-3.524-3.26 0-6.071 1.29-8.27 3.524-2.204 2.146-3.529 5.258-3.529 8.7m-9.609 0V56.803c0-2.49 2.118-4.637 4.762-4.637 2.734 0 4.828 2.146 4.828 4.637v16.159c3.26-2.233 7.506-3.61 11.809-3.61 11.904 0 21.417 9.801 21.417 21.562 0 11.617-9.513 21.417-21.417 21.417-4.408 0-8.654-1.463-12-3.695-.44 2.06-2.29 3.695-4.67 3.695-2.645 0-4.762-2.151-4.762-4.642V90.957zM126.035 55.933a3.611 3.611 0 0 1-3.614 3.615 3.611 3.611 0 0 1-3.614-3.615 3.611 3.611 0 0 1 3.614-3.614 3.611 3.611 0 0 1 3.614 3.614M118.386 64.348a6.74 6.74 0 0 1-6.74 6.74 6.74 6.74 0 0 1-6.742-6.74 6.742 6.742 0 0 1 6.741-6.741 6.742 6.742 0 0 1 6.74 6.74M84.443 93.462a4.827 4.827 0 0 1-4.829 4.829 4.827 4.827 0 0 1-4.828-4.829 4.827 4.827 0 0 1 4.828-4.828 4.827 4.827 0 0 1 4.829 4.828M80.14 105.892a4.336 4.336 0 1 1-8.671.001 4.336 4.336 0 0 1 8.671 0M115.517 100.155a4.336 4.336 0 1 1-8.67.001 4.336 4.336 0 0 1 8.67 0M122.21 112.107a3.854 3.854 0 1 1-7.708-.002 3.854 3.854 0 0 1 7.709.002M60.826 56.411c0 1.33-1.08 2.41-2.41 2.41a2.412 2.412 0 0 1-2.41-2.41c0-1.329 1.081-2.409 2.41-2.409 1.33 0 2.41 1.08 2.41 2.41M59.965 49.91c0 1.329-1.08 2.41-2.41 2.41a2.412 2.412 0 0 1-2.409-2.41c0-1.33 1.08-2.41 2.41-2.41 1.329 0 2.41 1.08 2.41 2.41M67.71 103.98a2.893 2.893 0 1 1-5.786-.002 2.893 2.893 0 0 1 5.786.002" fill="#08c"/><text style="text-align:start;line-height:125%;-inkscape-font-specification:Corbel Italic" x="19.213" y="38.802" font-size="36" font-style="italic" font-weight="400" letter-spacing="0" word-spacing="0" fill="#4d4c4e" font-family="Corbel"><tspan x="19.213" y="38.802">powered by</tspan></text></svg>